#Comment line ignore any data following # character 
#Hierarchical Translation and Rotation (.htr) file 
[Header]	
#Header keywords are followed by a single value 
FileType HTR		#Single word string
DataType HTRS		#Translation followed by rotation and scale data
FileVersion 1		#integer
NumSegments 84		#integer
NumFrames 2		#integer
DataFrameRate 30		#integer, data frame rate in this file
EulerRotationOrder ZYX
CalibrationUnits mm
RotationUnits Degrees
GlobalAxisofGravity Y
BoneLengthAxis Y
ScaleFactor 1.00
[SegmentNames&Hierarchy]
#CHILD	PARENT
MASTER GLOBAL
root MASTER
chest root
L_mid_tent01 root
R_mid_tent01 root
spine01 root
Bip01_Neck chest
L_humerus chest
R_humerus chest
weapon_bone chest
Bip01_Head Bip01_Neck
eye_left_bone Bip01_Head
eye_right_bone Bip01_Head
L_forearm L_humerus
L_front_hand L_forearm
L_weapon_bone L_forearm
L_front_hand01_01 L_front_hand
L_front_hand02_01 L_front_hand
L_front_hand03_01 L_front_hand
L_front_hand01_02 L_front_hand01_01
L_front_hand02_02 L_front_hand02_01
L_front_hand03_02 L_front_hand03_01
R_forearm R_humerus
R_front_hand R_forearm
R_weapon_bone R_forearm
R_front_hand01_01 R_front_hand
R_front_hand02_01 R_front_hand
R_front_hand03_01 R_front_hand
R_front_hand01_02 R_front_hand01_01
R_front_hand02_02 R_front_hand02_01
R_front_hand03_02 R_front_hand03_01
null_rope01_connect L_mid_tent01
Rope1_Seg01 null_rope01_connect
Rope1_Seg02 Rope1_Seg01
Rope1_Seg03 Rope1_Seg02
Rope1_Seg04 Rope1_Seg03
Rope1_Seg05 Rope1_Seg04
Rope1_Seg06 Rope1_Seg05
Rope1_Seg07 Rope1_Seg06
Rope1_Seg09 Rope1_Seg07
L_mid_hand01 Rope1_Seg09
L_mid_hand02 Rope1_Seg09
L_mid_hand03 Rope1_Seg09
null_rope02_connect R_mid_tent01
Rope2_Seg01 null_rope02_connect
Rope2_Seg02 Rope2_Seg01
Rope2_Seg03 Rope2_Seg02
Rope2_Seg04 Rope2_Seg03
Rope2_Seg05 Rope2_Seg04
Rope2_Seg06 Rope2_Seg05
Rope2_Seg07 Rope2_Seg06
Rope2_Seg09 Rope2_Seg07
R_mid_hand01 Rope2_Seg09
R_mid_hand02 Rope2_Seg09
R_mid_hand03 Rope2_Seg09
spine02 spine01
spine03 spine02
pelvis spine03
null_rope03_connect pelvis
null_rope04_connect pelvis
Rope3_Seg01 null_rope03_connect
Rope3_Seg02 Rope3_Seg01
Rope3_Seg03 Rope3_Seg02
Rope3_Seg04 Rope3_Seg03
Rope3_Seg05 Rope3_Seg04
Rope3_Seg06 Rope3_Seg05
Rope3_Seg07 Rope3_Seg06
Rope3_Seg08 Rope3_Seg07
Rope3_Seg09 Rope3_Seg08
R_rear_hand01 Rope3_Seg09
R_rear_hand02 Rope3_Seg09
R_rear_hand03 Rope3_Seg09
Rope4_Seg01 null_rope04_connect
Rope4_Seg02 Rope4_Seg01
Rope4_Seg03 Rope4_Seg02
Rope4_Seg04 Rope4_Seg03
Rope4_Seg05 Rope4_Seg04
Rope4_Seg06 Rope4_Seg05
Rope4_Seg07 Rope4_Seg06
Rope4_Seg08 Rope4_Seg07
Rope4_Seg09 Rope4_Seg08
L_rear_hand01 Rope4_Seg09
L_rear_hand02 Rope4_Seg09
L_rear_hand03 Rope4_Seg09
[BasePosition]
#SegmentName Tx, Ty, Tz, Rx, Ry, Rz, BoneLength
MASTER 0.000000 0.000000 0.000000 -90.000000 0.000000 0.000000 10.000000 
root 0.000000 0.000000 0.000000 0.000000 0.000000 0.000000 10.000000 
chest 0.000000 0.000000 0.000000 0.000000 0.000000 0.000000 10.000000 
L_mid_tent01 0.000000 0.000000 0.000000 0.000000 0.000000 0.000000 10.000000 
R_mid_tent01 0.000000 0.000000 0.000000 0.000000 0.000000 0.000000 10.000000 
spine01 0.000000 0.000000 0.000000 0.000000 0.000000 0.000000 10.000000 
Bip01_Neck 0.000000 0.000000 0.000000 0.000000 0.000000 0.000000 10.000000 
L_humerus 0.000000 0.000000 0.000000 0.000000 0.000000 0.000000 10.000000 
R_humerus 0.000000 0.000000 0.000000 0.000000 0.000000 0.000000 10.000000 
weapon_bone 0.000000 0.000000 0.000000 0.000000 0.000000 0.000000 10.000000 
Bip01_Head 0.000000 0.000000 0.000000 0.000000 0.000000 0.000000 10.000000 
eye_left_bone 0.000000 0.000000 0.000000 0.000000 0.000000 0.000000 10.000000 
eye_right_bone 0.000000 0.000000 0.000000 0.000000 0.000000 0.000000 10.000000 
L_forearm 0.000000 0.000000 0.000000 0.000000 0.000000 0.000000 10.000000 
L_front_hand 0.000000 0.000000 0.000000 0.000000 0.000000 0.000000 10.000000 
L_weapon_bone 0.000000 0.000000 0.000000 0.000000 0.000000 0.000000 10.000000 
L_front_hand01_01 0.000000 0.000000 0.000000 0.000000 0.000000 0.000000 10.000000 
L_front_hand02_01 0.000000 0.000000 0.000000 0.000000 0.000000 0.000000 10.000000 
L_front_hand03_01 0.000000 0.000000 0.000000 0.000000 0.000000 0.000000 10.000000 
L_front_hand01_02 0.000000 0.000000 0.000000 0.000000 0.000000 0.000000 10.000000 
L_front_hand02_02 0.000000 0.000000 0.000000 0.000000 0.000000 0.000000 10.000000 
L_front_hand03_02 0.000000 0.000000 0.000000 0.000000 0.000000 0.000000 10.000000 
R_forearm 0.000000 0.000000 0.000000 0.000000 0.000000 0.000000 10.000000 
R_front_hand 0.000000 0.000000 0.000000 0.000000 0.000000 0.000000 10.000000 
R_weapon_bone 0.000000 0.000000 0.000000 0.000000 0.000000 0.000000 10.000000 
R_front_hand01_01 0.000000 0.000000 0.000000 0.000000 0.000000 0.000000 10.000000 
R_front_hand02_01 0.000000 0.000000 0.000000 0.000000 0.000000 0.000000 10.000000 
R_front_hand03_01 0.000000 0.000000 0.000000 0.000000 0.000000 0.000000 10.000000 
R_front_hand01_02 0.000000 0.000000 0.000000 0.000000 0.000000 0.000000 10.000000 
R_front_hand02_02 0.000000 0.000000 0.000000 0.000000 0.000000 0.000000 10.000000 
R_front_hand03_02 0.000000 0.000000 0.000000 0.000000 0.000000 0.000000 10.000000 
null_rope01_connect 0.000000 0.000000 0.000000 0.000000 0.000000 0.000000 10.000000 
Rope1_Seg01 0.000000 0.000000 0.000000 0.000000 0.000000 0.000000 10.000000 
Rope1_Seg02 0.000000 0.000000 0.000000 0.000000 0.000000 0.000000 10.000000 
Rope1_Seg03 0.000000 0.000000 0.000000 0.000000 0.000000 0.000000 10.000000 
Rope1_Seg04 0.000000 0.000000 0.000000 0.000000 0.000000 0.000000 10.000000 
Rope1_Seg05 0.000000 0.000000 0.000000 0.000000 0.000000 0.000000 10.000000 
Rope1_Seg06 0.000000 0.000000 0.000000 0.000000 0.000000 0.000000 10.000000 
Rope1_Seg07 0.000000 0.000000 0.000000 0.000000 0.000000 0.000000 10.000000 
Rope1_Seg09 0.000000 0.000000 0.000000 0.000000 0.000000 0.000000 10.000000 
L_mid_hand01 0.000000 0.000000 0.000000 0.000000 0.000000 0.000000 10.000000 
L_mid_hand02 0.000000 0.000000 0.000000 0.000000 0.000000 0.000000 10.000000 
L_mid_hand03 0.000000 0.000000 0.000000 0.000000 0.000000 0.000000 10.000000 
null_rope02_connect 0.000000 0.000000 0.000000 0.000000 0.000000 0.000000 10.000000 
Rope2_Seg01 0.000000 0.000000 0.000000 0.000000 0.000000 0.000000 10.000000 
Rope2_Seg02 0.000000 0.000000 0.000000 0.000000 0.000000 0.000000 10.000000 
Rope2_Seg03 0.000000 0.000000 0.000000 0.000000 0.000000 0.000000 10.000000 
Rope2_Seg04 0.000000 0.000000 0.000000 0.000000 0.000000 0.000000 10.000000 
Rope2_Seg05 0.000000 0.000000 0.000000 0.000000 0.000000 0.000000 10.000000 
Rope2_Seg06 0.000000 0.000000 0.000000 0.000000 0.000000 0.000000 10.000000 
Rope2_Seg07 0.000000 0.000000 0.000000 0.000000 0.000000 0.000000 10.000000 
Rope2_Seg09 0.000000 0.000000 0.000000 0.000000 0.000000 0.000000 10.000000 
R_mid_hand01 0.000000 0.000000 0.000000 0.000000 0.000000 0.000000 10.000000 
R_mid_hand02 0.000000 0.000000 0.000000 0.000000 0.000000 0.000000 10.000000 
R_mid_hand03 0.000000 0.000000 0.000000 0.000000 0.000000 0.000000 10.000000 
spine02 0.000000 0.000000 0.000000 0.000000 0.000000 0.000000 10.000000 
spine03 0.000000 0.000000 0.000000 0.000000 0.000000 0.000000 10.000000 
pelvis 0.000000 0.000000 0.000000 0.000000 0.000000 0.000000 10.000000 
null_rope03_connect 0.000000 0.000000 0.000000 0.000000 0.000000 0.000000 10.000000 
null_rope04_connect 0.000000 0.000000 0.000000 0.000000 0.000000 0.000000 10.000000 
Rope3_Seg01 0.000000 0.000000 0.000000 0.000000 0.000000 0.000000 10.000000 
Rope3_Seg02 0.000000 0.000000 0.000000 0.000000 0.000000 0.000000 10.000000 
Rope3_Seg03 0.000000 0.000000 0.000000 0.000000 0.000000 0.000000 10.000000 
Rope3_Seg04 0.000000 0.000000 0.000000 0.000000 0.000000 0.000000 10.000000 
Rope3_Seg05 0.000000 0.000000 0.000000 0.000000 0.000000 0.000000 10.000000 
Rope3_Seg06 0.000000 0.000000 0.000000 0.000000 0.000000 0.000000 10.000000 
Rope3_Seg07 0.000000 0.000000 0.000000 0.000000 0.000000 0.000000 10.000000 
Rope3_Seg08 0.000000 0.000000 0.000000 0.000000 0.000000 0.000000 10.000000 
Rope3_Seg09 0.000000 0.000000 0.000000 0.000000 0.000000 0.000000 10.000000 
R_rear_hand01 0.000000 0.000000 0.000000 0.000000 0.000000 0.000000 10.000000 
R_rear_hand02 0.000000 0.000000 0.000000 0.000000 0.000000 0.000000 10.000000 
R_rear_hand03 0.000000 0.000000 0.000000 0.000000 0.000000 0.000000 10.000000 
Rope4_Seg01 0.000000 0.000000 0.000000 0.000000 0.000000 0.000000 10.000000 
Rope4_Seg02 0.000000 0.000000 0.000000 0.000000 0.000000 0.000000 10.000000 
Rope4_Seg03 0.000000 0.000000 0.000000 0.000000 0.000000 0.000000 10.000000 
Rope4_Seg04 0.000000 0.000000 0.000000 0.000000 0.000000 0.000000 10.000000 
Rope4_Seg05 0.000000 0.000000 0.000000 0.000000 0.000000 0.000000 10.000000 
Rope4_Seg06 0.000000 0.000000 0.000000 0.000000 0.000000 0.000000 10.000000 
Rope4_Seg07 0.000000 0.000000 0.000000 0.000000 0.000000 0.000000 10.000000 
Rope4_Seg08 0.000000 0.000000 0.000000 0.000000 0.000000 0.000000 10.000000 
Rope4_Seg09 0.000000 0.000000 0.000000 0.000000 0.000000 0.000000 10.000000 
L_rear_hand01 0.000000 0.000000 0.000000 0.000000 0.000000 0.000000 10.000000 
L_rear_hand02 0.000000 0.000000 0.000000 0.000000 0.000000 0.000000 10.000000 
L_rear_hand03 0.000000 0.000000 0.000000 0.000000 0.000000 0.000000 10.000000 
#Beginning of Data. Separated by tabs
#Fr	Tx	Ty	Tz	Rx	Ry	Rz	SF
[MASTER]
34 -0.001176 7861.285156 0.000000 0.001660 0.001660 0.001660 7861.285156
35 -0.001217 8131.857910 0.000000 0.001660 0.001660 0.001660 8131.857910
[root]
34 -93.503761 216.915894 1515.282104 -96.941719 0.825044 -84.433243 1533.582520
35 -75.195236 166.644897 1498.225708 -96.360954 2.343369 -86.719894 1509.339233
[chest]
34 -84.512650 -34.090519 0.000000 -4.784789 1.413524 177.132141 91.129311
35 -84.512650 -34.090519 0.000000 -4.148571 1.017896 174.916687 91.129311
[L_mid_tent01]
34 27.299225 22.179205 -249.918991 -22.342381 31.314045 17.507208 252.381989
35 27.299215 22.179256 -249.919022 -22.044409 26.228046 16.317043 252.382034
[R_mid_tent01]
34 23.228794 24.509907 226.238495 -176.157806 -15.686841 44.148232 228.744751
35 23.228794 24.509907 226.238495 -173.515900 -17.115652 39.291042 228.744751
[spine01]
34 -0.361383 -0.195265 0.000000 0.073417 0.033039 21.533121 0.410763
35 -0.361383 -0.195265 0.000000 0.055576 0.025046 21.662800 0.410763
[Bip01_Neck]
34 165.484543 71.581718 0.000119 175.896118 1.177290 24.871183 180.302734
35 165.484543 71.581718 0.000119 175.896118 1.177290 24.871183 180.302734
[L_humerus]
34 -13.983130 -135.272980 -120.471481 -4.960308 68.625755 84.486839 181.680161
35 -13.983130 -135.272980 -120.471481 -5.057184 68.741852 84.383324 181.680161
[R_humerus]
34 -13.983309 -135.273102 125.287651 -130.987976 -76.175446 -142.076416 184.909012
35 -13.983309 -135.273102 125.287651 -109.372353 -83.766052 -161.512680 184.909012
[weapon_bone]
34 235.964890 -300.705902 0.000000 0.000000 -89.951546 -128.212341 382.234833
35 235.964890 -300.705902 0.000000 0.000000 -89.951546 -128.212341 382.234833
[Bip01_Head]
34 243.662720 178.721161 -9.226913 -26.660509 10.250062 -58.227036 302.320892
35 247.731918 162.556137 -8.387375 -16.480410 8.703060 -59.709980 296.421906
[eye_left_bone]
34 -24.626970 125.451866 -64.772606 0.000000 -90.000000 -99.840431 143.318359
35 -24.626970 125.451866 -64.772606 0.000000 -90.000000 -99.840431 143.318359
[eye_right_bone]
34 -24.626970 125.451866 64.327362 0.000000 -89.960434 80.159386 143.117676
35 -24.626970 125.451866 64.327362 0.000000 -89.960434 80.159386 143.117676
[L_forearm]
34 322.776093 0.000000 -0.000119 0.000369 -0.002318 -108.107277 322.776093
35 322.776093 0.000000 -0.000119 0.000376 -0.002317 -108.417107 322.776093
[L_front_hand]
34 241.149185 -0.042021 -3.300071 -178.667953 -1.835447 -27.422350 241.171753
35 241.149185 -0.042021 -3.300071 -178.667953 -1.835447 -27.422350 241.171753
[L_weapon_bone]
34 156.183838 0.000000 0.000000 0.000014 0.000007 0.000001 156.183838
35 156.183838 0.000000 0.000000 0.000014 0.000007 0.000001 156.183838
[L_front_hand01_01]
34 86.095154 20.947098 -0.655860 -0.366594 -0.477154 75.385574 88.609184
35 86.095154 20.947098 -0.655860 -0.366594 -0.477154 75.385574 88.609184
[L_front_hand02_01]
34 86.935165 -11.437475 24.513514 154.403519 -59.888931 -61.371990 91.046425
35 86.935165 -11.437475 24.513514 154.403519 -59.888931 -61.371990 91.046425
[L_front_hand03_01]
34 86.637497 -14.123976 -20.424902 -153.913849 58.118122 -62.702866 90.126129
35 86.637497 -14.123976 -20.424902 -153.913849 58.118130 -62.702866 90.126129
[L_front_hand01_02]
34 71.020905 -0.000179 0.000030 0.000334 -0.002323 -106.379684 71.020905
35 71.020905 -0.000179 0.000030 0.000334 -0.002323 -106.379684 71.020905
[L_front_hand02_02]
34 71.020927 -0.000119 0.000060 0.000334 -0.002323 -106.379684 71.020927
35 71.020927 -0.000119 0.000060 0.000334 -0.002323 -106.379684 71.020927
[L_front_hand03_02]
34 71.020905 -0.000060 0.000060 0.000334 -0.002323 -106.379684 71.020905
35 71.020905 -0.000060 0.000060 0.000334 -0.002323 -106.379684 71.020905
[R_forearm]
34 322.776428 -0.000060 0.000030 0.203861 0.055897 -106.737312 322.776428
35 322.776428 -0.000060 0.000030 0.203698 0.056488 -107.069748 322.776428
[R_front_hand]
34 238.847015 -0.006795 2.210259 25.635983 9.433575 -40.510342 238.857239
35 238.847015 -0.006795 2.210259 17.645348 7.426548 -43.583939 238.857239
[R_weapon_bone]
34 155.664093 0.002503 -0.000030 0.003487 0.001180 -90.988930 155.664078
35 155.664093 0.002503 -0.000030 0.003487 0.001180 -90.988930 155.664078
[R_front_hand01_01]
34 87.624611 14.231146 22.918642 -154.633499 -59.950619 61.746044 91.683487
35 87.624611 14.231146 22.918642 -154.633499 -59.950619 61.746044 91.683487
[R_front_hand02_01]
34 89.356956 14.367283 -19.491137 154.602661 58.302849 63.744389 92.579636
35 89.356956 14.367283 -19.491137 154.602661 58.302849 63.744389 92.579636
[R_front_hand03_01]
34 87.286232 -22.307278 -0.143439 0.162155 -0.423168 -75.767921 90.091743
35 87.286232 -22.307278 -0.143439 0.162155 -0.423168 -75.767921 90.091743
[R_front_hand01_02]
34 71.020905 0.000060 0.000119 0.002323 -0.000334 106.381714 71.020905
35 71.020905 0.000060 0.000119 0.002323 -0.000334 106.381714 71.020905
[R_front_hand02_02]
34 71.020844 -0.000030 -0.000119 0.002323 -0.000334 106.381714 71.020836
35 71.020844 -0.000030 -0.000119 0.002323 -0.000334 106.381714 71.020836
[R_front_hand03_02]
34 71.020905 0.000000 0.000030 0.002323 -0.000334 106.381714 71.020905
35 71.020905 0.000000 0.000030 0.002323 -0.000334 106.381714 71.020905
[null_rope01_connect]
34 328.732483 0.000000 -0.000238 -156.410873 -48.784195 -134.963547 328.732483
35 328.732483 0.000000 -0.000238 -159.124939 -51.959045 -132.654114 328.732483
[Rope1_Seg01]
34 0.000000 0.000000 0.000000 95.426636 13.238812 -133.826828 0.000000
35 0.000000 0.000000 0.000000 101.362434 15.428024 -133.976669 0.000000
[Rope1_Seg02]
34 139.999863 -0.000179 0.000000 24.313194 -8.224521 -4.298742 139.999863
35 139.999863 -0.000179 0.000000 20.590736 -5.466198 -3.578703 139.999863
[Rope1_Seg03]
34 139.999924 0.000060 -0.000060 22.820665 -21.145212 -0.265388 139.999924
35 139.999924 0.000060 -0.000060 23.439154 -13.381261 -2.130470 139.999924
[Rope1_Seg04]
34 139.999924 -0.000060 -0.000119 6.685942 -30.939583 12.179775 139.999924
35 139.999924 -0.000060 -0.000119 15.164202 -21.497467 3.100080 139.999924
[Rope1_Seg05]
34 139.999832 0.000119 -0.000060 4.292378 -54.239960 -4.109859 139.999832
35 139.999832 0.000119 -0.000060 40.263046 -34.201290 -29.779373 139.999832
[Rope1_Seg06]
34 139.999954 0.000119 -0.000060 -16.196253 -36.754375 2.143501 139.999954
35 139.999954 0.000119 -0.000060 5.829200 -40.740307 0.809574 139.999954
[Rope1_Seg07]
34 139.999985 0.000060 0.000000 -2.869809 -3.953180 -0.834867 139.999985
35 139.999985 0.000060 0.000000 0.006605 0.001660 0.001660 139.999985
[Rope1_Seg09]
34 121.602913 0.000119 -0.000089 -89.793175 -1.359789 0.847147 121.602913
35 121.602913 0.000119 -0.000089 -89.793175 -1.359789 0.847147 121.602913
[L_mid_hand01]
34 103.859421 1.038730 8.195221 114.518288 -53.314770 -20.619909 104.187431
35 103.859421 1.038730 8.195221 114.518227 -53.314899 -20.619806 104.187431
[L_mid_hand02]
34 105.572853 -4.139662 -10.864139 -155.067673 38.166626 -52.448818 106.211075
35 105.572853 -4.139662 -10.864139 -155.067673 38.166626 -52.448818 106.211075
[L_mid_hand03]
34 104.641464 17.579376 -3.913581 -10.970130 15.317461 57.626949 106.179977
35 104.641464 17.579376 -3.913581 -10.970130 15.317461 57.626949 106.179977
[null_rope02_connect]
34 328.732849 0.000179 -0.000119 -116.621506 74.443001 19.738283 328.732849
35 328.732849 0.000179 -0.000119 -130.185562 74.552277 3.214600 328.732849
[Rope2_Seg01]
34 0.000085 0.000552 0.000085 50.368103 10.479825 -46.902733 0.000565
35 0.000088 0.000567 0.000082 86.677803 14.575187 -51.563213 0.000579
[Rope2_Seg02]
34 139.999741 -0.000060 -0.000119 -119.419724 11.924700 -1.335003 139.999756
35 139.999741 -0.000060 -0.000119 71.634232 6.021862 -6.983851 139.999756
[Rope2_Seg03]
34 140.000107 0.000030 0.000000 -21.749912 -5.140715 7.521594 140.000107
35 140.000107 0.000030 0.000000 62.065800 -2.082494 -6.147552 140.000107
[Rope2_Seg04]
34 139.999802 0.000000 -0.000060 -10.290977 -4.748717 6.072678 139.999802
35 139.999802 0.000000 -0.000060 5.910834 -6.004666 1.174179 139.999802
[Rope2_Seg05]
34 139.999985 -0.000060 0.000119 -17.608978 -4.125021 12.188423 139.999985
35 139.999985 -0.000060 0.000119 -7.706223 -6.701833 6.225723 139.999985
[Rope2_Seg06]
34 139.999893 -0.000030 -0.000119 -7.540646 -6.950393 9.262821 139.999893
35 139.999893 -0.000030 -0.000119 -2.381716 -5.736372 3.856194 139.999893
[Rope2_Seg07]
34 139.999893 0.000060 -0.000060 -2.945096 -5.981758 5.711252 139.999893
35 139.999893 0.000060 -0.000060 -0.790930 -4.153310 2.336756 139.999893
[Rope2_Seg09]
34 121.338966 0.000089 -0.000060 136.879395 0.546403 -1.506369 121.338966
35 121.338966 0.000089 -0.000060 136.879395 0.546403 -1.506368 121.338966
[R_mid_hand01]
34 104.680779 11.144459 -10.335981 -39.248650 29.171114 33.551922 105.778534
35 104.680779 11.144459 -10.335981 -39.248650 29.171114 33.551922 105.778534
[R_mid_hand02]
34 104.070427 2.443552 8.231699 71.586517 -38.253605 12.182658 104.424065
35 104.070427 2.443552 8.231699 71.586517 -38.253605 12.182658 104.424065
[R_mid_hand03]
34 106.028137 -11.221827 -5.996406 -168.987167 11.419018 -42.774643 106.788818
35 106.028137 -11.221827 -5.996406 -168.987167 11.419018 -42.774643 106.788818
[spine02]
34 129.756927 0.001550 0.000119 0.294842 -8.115692 -9.464988 129.756927
35 129.756927 0.001550 0.000119 0.335805 -7.059920 -10.362691 129.756927
[spine03]
34 78.602135 0.083915 -5.013797 1.816226 3.599182 16.352917 78.761925
35 78.605072 0.083269 -4.985095 1.810543 3.580143 16.339836 78.763031
[pelvis]
34 169.435242 0.051022 0.000000 -0.058976 -0.200749 12.783633 169.435257
35 169.435242 0.051022 0.000000 -0.059526 -0.193112 13.114475 169.435257
[null_rope03_connect]
34 -1.257226 -2.466202 137.391083 116.978058 -79.233162 -69.030167 137.418976
35 -1.257226 -2.466202 137.391083 124.686867 -82.166946 -77.836266 137.418976
[null_rope04_connect]
34 -1.259640 -2.480268 -137.844437 116.978058 -79.233162 -69.030167 137.872513
35 -1.259640 -2.480268 -137.844437 124.686867 -82.166946 -77.836266 137.872513
[Rope3_Seg01]
34 0.000008 -0.000548 0.000000 -135.681198 -26.460201 -69.308136 0.000549
35 0.000006 -0.000564 0.000000 -132.207321 -11.033944 -69.656029 0.000564
[Rope3_Seg02]
34 139.999924 -0.000119 0.000060 2.059679 -8.061531 -1.199720 139.999924
35 139.999924 -0.000119 0.000060 1.551374 -7.970009 3.528501 139.999924
[Rope3_Seg03]
34 139.999924 -0.000119 0.000119 6.035454 -15.465931 -4.107686 139.999924
35 139.999924 -0.000119 0.000119 2.290436 -10.331008 2.596160 139.999924
[Rope3_Seg04]
34 139.999924 0.000119 0.000000 25.832556 -39.232662 7.901731 139.999924
35 139.999924 0.000119 0.000000 2.815424 -23.073940 20.145103 139.999924
[Rope3_Seg05]
34 139.999924 -0.000238 0.000060 1.250837 -32.632690 63.580669 139.999924
35 139.999924 -0.000238 0.000060 -7.041550 -24.455036 38.485546 139.999924
[Rope3_Seg06]
34 139.999893 -0.000119 -0.000060 -1.313915 -4.095533 13.725970 139.999893
35 139.999893 -0.000119 -0.000060 -2.805320 -8.857275 12.234082 139.999893
[Rope3_Seg07]
34 139.999771 0.000060 -0.000119 -0.152113 -1.126740 3.559849 139.999771
35 139.999771 0.000060 -0.000119 -0.651714 -3.128433 3.983285 139.999771
[Rope3_Seg08]
34 139.999985 -0.000060 0.000000 0.491134 -0.073526 0.233792 139.999985
35 139.999985 -0.000060 0.000000 0.400721 -0.375863 0.470194 139.999985
[Rope3_Seg09]
34 90.185997 -0.000179 -0.000060 159.792526 -1.358243 -0.846482 90.185997
35 90.185997 -0.000179 -0.000060 159.792526 -1.358243 -0.846482 90.185997
[R_rear_hand01]
34 103.366196 -6.073594 -10.757982 -177.714203 24.565960 -73.910950 104.101845
35 103.366196 -6.073594 -10.757982 -177.714203 24.565960 -73.910950 104.101845
[R_rear_hand02]
34 100.509819 12.039542 -7.992327 -12.874829 36.868488 72.167213 101.543350
35 100.509819 12.039542 -7.992327 -12.874829 36.868488 72.167213 101.543350
[R_rear_hand03]
34 101.539970 5.215704 5.435467 71.484581 -71.816628 21.513813 101.819031
35 101.539970 5.215704 5.435467 71.484581 -71.816628 21.513813 101.819031
[Rope4_Seg01]
34 0.000061 -0.001076 0.000000 34.921650 47.630596 -125.482407 0.001078
35 0.000060 -0.001112 0.000000 37.510601 49.199142 -122.007195 0.001114
[Rope4_Seg02]
34 139.999985 0.000060 0.000119 0.182367 -0.278713 5.082126 139.999985
35 139.999985 0.000060 0.000119 0.008591 -2.858667 3.291801 139.999985
[Rope4_Seg03]
34 139.999924 0.000000 -0.000238 0.101114 -3.711723 2.735046 139.999924
35 139.999924 0.000000 -0.000238 0.158506 -4.478392 1.811996 139.999924
[Rope4_Seg04]
34 139.999985 0.000000 0.000119 0.177282 -1.732984 2.125995 139.999985
35 139.999985 0.000000 0.000119 0.318786 -4.038592 1.252388 139.999985
[Rope4_Seg05]
34 139.999802 -0.000060 -0.000119 0.366171 9.656216 2.727928 139.999802
35 139.999802 -0.000060 -0.000119 0.102060 6.904333 1.910501 139.999802
[Rope4_Seg06]
34 139.999924 0.000000 0.000060 0.894881 10.352936 2.074241 139.999924
35 139.999924 0.000000 0.000060 0.524374 10.191429 1.796299 139.999924
[Rope4_Seg07]
34 139.999802 0.000000 0.000000 0.546785 4.424407 1.042379 139.999802
35 139.999802 0.000000 0.000000 0.475085 4.954915 0.987548 139.999802
[Rope4_Seg08]
34 139.999924 0.000000 0.000119 -1.192288 2.510780 0.598877 139.999924
35 139.999924 0.000000 0.000119 -1.242109 2.634272 0.556883 139.999924
[Rope4_Seg09]
34 90.185791 0.000060 0.000060 -135.617828 2.228885 0.850567 90.185791
35 90.185791 0.000060 0.000060 -135.617828 2.228885 0.850567 90.185791
[L_rear_hand01]
34 101.696655 -8.392275 -7.654577 -19.915020 -33.950905 119.950104 102.329041
35 101.696655 -8.392275 -7.654577 -19.915020 -33.950905 119.950104 102.329041
[L_rear_hand02]
34 102.726799 -1.568258 5.773216 77.862221 61.878510 165.399200 102.900848
35 102.726799 -1.568258 5.773216 77.862221 61.878510 165.399200 102.900848
[L_rear_hand03]
34 104.552910 9.721220 -10.420293 -173.099182 -23.740307 -117.327896 105.519653
35 104.552910 9.721220 -10.420293 -173.099182 -23.740307 -117.327896 105.519653
